<?xml version="1.0" standalone="no"?>
<!DOCTYPE svg PUBLIC "-//W3C//DTD SVG 20010904//EN"
 "http://www.w3.org/TR/2001/REC-SVG-20010904/DTD/svg10.dtd">
<svg version="1.0" xmlns="http://www.w3.org/2000/svg"
 width="261.000000pt" height="261.000000pt" viewBox="0 0 261.000000 261.000000"
 preserveAspectRatio="xMidYMid meet">
<metadata>
Created by potrace 1.14, written by Peter Selinger 2001-2017
</metadata>
<g transform="translate(0.000000,261.000000) scale(0.100000,-0.100000)"
fill="#000000" stroke="none">
<path d="M745 2006 c-16 -16 -25 -36 -25 -55 0 -29 -2 -30 -31 -24 -17 3 -47
1 -67 -4 -20 -6 -68 -18 -107 -27 -87 -20 -223 -84 -292 -138 -93 -71 -116
-164 -89 -348 19 -122 37 -156 84 -154 22 1 29 -2 25 -12 -8 -21 17 -46 40
-40 16 4 18 1 10 -22 -16 -52 -8 -164 15 -222 34 -84 66 -115 157 -153 44 -19
102 -48 129 -65 32 -21 57 -30 71 -26 12 3 49 -2 82 -10 105 -27 156 -18 186
34 28 46 22 76 -25 123 -24 23 -58 49 -75 56 -21 9 -33 20 -33 33 0 10 -6 21
-12 23 -92 32 -136 52 -171 79 -39 30 -42 36 -39 72 2 21 6 41 8 43 2 2 17 -2
34 -9 23 -9 33 -10 44 -1 11 9 26 8 65 -5 46 -15 53 -15 75 -1 22 15 25 15 41
-3 22 -24 106 -53 141 -48 24 3 32 -6 76 -77 61 -97 76 -115 100 -115 10 0 18
-4 18 -10 0 -5 32 -43 71 -84 73 -78 134 -116 185 -116 103 0 170 152 106 239
-25 34 -38 155 -16 147 87 -33 137 -41 264 -41 125 1 142 3 228 33 105 36 117
38 152 17 94 -55 192 -96 254 -105 136 -21 142 15 17 102 -30 21 -39 33 -31
38 9 6 -3 26 -43 72 -31 34 -105 137 -165 228 -170 261 -269 375 -385 444 -25
14 -94 43 -154 63 -91 31 -125 37 -218 41 -77 3 -129 -1 -175 -11 -36 -9 -110
-19 -165 -23 -55 -3 -108 -11 -118 -16 -18 -9 -20 -7 -31 45 -9 39 -45 54 -95
37 -33 -11 -42 -10 -64 5 -25 16 -27 16 -52 -9z m65 -72 c0 -8 -4 -12 -10 -9
-5 3 -10 10 -10 16 0 5 5 9 10 9 6 0 10 -7 10 -16z m845 -33 c22 -6 51 -20 65
-30 24 -19 24 -20 5 -26 -11 -3 -31 -12 -45 -19 -22 -11 -32 -8 -85 22 -67 38
-97 61 -90 72 5 8 93 -3 150 -19z m-862 -15 c3 4 13 1 22 -6 11 -9 18 -10 28
-1 19 15 28 3 21 -25 -7 -28 10 -32 25 -7 5 10 12 15 16 12 3 -4 -4 -24 -17
-45 -14 -24 -17 -34 -8 -29 8 6 17 10 20 10 3 0 16 8 30 17 35 23 80 33 80 18
0 -7 7 -10 15 -6 24 9 17 -19 -11 -48 -15 -14 -23 -26 -18 -26 5 0 -6 -9 -25
-21 -39 -23 -58 -20 -63 13 -2 14 -10 23 -21 23 -10 0 -25 9 -33 19 -11 15
-16 17 -28 7 -12 -10 -21 -3 -50 41 -20 29 -36 57 -36 63 0 5 5 3 10 -5 8 -12
10 -10 10 10 l1 25 12 -23 c7 -12 16 -20 20 -16z m199 27 c-10 -4 -10 -9 3
-23 9 -10 23 -16 31 -13 19 7 18 21 -3 26 -14 4 -13 5 4 6 12 0 25 -4 28 -10
4 -6 13 -8 21 -5 8 3 13 2 12 -2 -1 -4 7 -26 19 -50 18 -36 19 -43 6 -50 -8
-5 -25 -7 -37 -5 -18 4 -22 11 -21 34 3 45 -15 52 -71 28 -27 -12 -57 -28 -66
-37 -27 -23 -22 -8 15 45 34 51 46 63 62 62 6 0 4 -3 -3 -6z m-230 -84 c24
-30 34 -50 27 -55 -6 -3 -9 -24 -7 -45 3 -33 0 -39 -20 -44 -12 -3 -28 -3 -34
1 -5 4 -14 1 -18 -6 -6 -11 -12 -10 -25 4 -14 13 -15 19 -5 31 7 8 20 15 29
15 14 0 14 2 1 10 -13 8 -12 10 3 10 9 0 17 7 17 15 0 8 7 15 14 15 12 0 13 6
4 33 -7 17 -20 48 -30 67 -11 19 -13 27 -6 16 7 -10 30 -40 50 -67z m-165 -53
c-42 -35 -47 -66 -17 -96 27 -27 63 -34 110 -22 22 5 40 8 40 5 0 -2 -12 -20
-27 -39 -17 -23 -28 -52 -31 -84 -4 -45 -3 -50 16 -50 11 0 36 7 57 16 l38 15
47 -46 c34 -33 54 -46 70 -43 29 4 59 45 62 83 1 17 6 36 12 44 8 10 5 17 -12
29 -12 8 -22 19 -22 25 0 7 4 7 12 -1 15 -15 32 -16 23 -1 -4 5 -18 14 -31 19
-27 11 -30 26 -10 52 28 37 135 63 152 37 4 -8 0 -9 -15 -4 -12 4 -21 2 -21
-4 0 -6 7 -11 15 -11 8 0 15 -7 15 -16 0 -11 -6 -14 -21 -9 -15 5 -19 4 -15
-4 4 -6 0 -11 -9 -11 -9 0 -13 -5 -9 -11 4 -7 -3 -10 -19 -7 -15 1 -25 -1 -24
-7 1 -5 6 -9 10 -7 4 1 3 -6 -2 -17 -9 -16 -5 -24 20 -45 23 -20 26 -26 13
-26 -22 0 -54 -28 -54 -47 0 -8 -5 -24 -12 -36 -7 -12 -12 -29 -13 -36 0 -25
-81 -79 -135 -90 -28 -6 -91 -11 -139 -11 -99 0 -195 -22 -310 -69 -90 -38
-101 -38 -101 -6 0 30 43 60 99 70 112 19 201 64 201 101 0 10 -13 5 -39 -17
-28 -22 -63 -37 -123 -51 -46 -10 -107 -32 -136 -49 -78 -44 -89 -29 -113 154
-13 103 -6 179 17 170 8 -3 14 1 14 11 0 9 -5 16 -10 16 -19 0 19 57 57 87 83
65 179 110 303 142 l65 17 19 -44 20 -45 -37 -31z m528 114 c3 -5 1 -10 -4
-10 -6 0 -11 5 -11 10 0 6 2 10 4 10 3 0 8 -4 11 -10z m-86 -51 c-7 -4 -17 -5
-22 -2 -5 3 -3 9 4 14 7 4 17 5 22 2 5 -3 3 -9 -4 -14z m205 -45 c28 -13 68
-27 89 -30 29 -5 57 -23 111 -73 88 -82 137 -117 246 -171 47 -23 132 -72 190
-108 90 -57 151 -91 373 -205 35 -18 36 -20 20 -33 -16 -12 -16 -15 -3 -24 19
-12 70 -13 70 0 0 5 -8 14 -17 19 -16 9 -15 10 8 11 14 0 34 -9 43 -19 17 -18
14 -19 -69 -31 -161 -23 -238 0 -565 167 -217 110 -251 131 -295 179 -32 34
-72 65 -110 83 -40 19 -74 45 -100 76 -21 26 -52 54 -69 62 -84 40 -97 53 -52
53 34 0 45 19 40 70 l-4 44 21 -23 c12 -13 45 -34 73 -47z m327 -6 c40 -30 63
-43 143 -85 15 -9 34 -31 42 -49 16 -39 19 -104 4 -104 -38 0 -218 128 -295
210 -29 31 -29 32 -11 46 31 22 70 17 117 -18z m369 -43 c78 -76 89 -99 33
-60 -21 14 -43 25 -51 25 -7 0 -35 15 -62 34 -28 19 -65 38 -82 42 l-33 7 35
12 c65 22 85 15 160 -60z m-38 -97 c29 -28 76 -67 105 -86 29 -19 55 -43 58
-53 8 -23 -15 -100 -31 -106 -6 -2 -38 14 -69 36 -32 23 -68 41 -80 41 -34 0
-46 23 -51 91 -2 37 -11 75 -23 95 l-20 34 29 0 c22 0 43 -13 82 -52z m-1092
12 c0 -28 3 -31 33 -30 58 1 79 -6 93 -31 17 -30 17 -35 2 -37 -7 0 -22 -3
-32 -5 -12 -2 -29 6 -44 22 -17 18 -25 22 -31 13 -7 -13 -16 0 -38 58 l-10 24
-19 -22 c-19 -22 -51 -31 -38 -11 7 12 65 49 77 49 4 0 7 -14 7 -30z m358 -16
c-4 -33 1 -40 74 -108 57 -54 78 -81 78 -99 0 -34 34 -73 76 -87 38 -13 59
-48 48 -82 -3 -11 2 -30 11 -45 10 -14 19 -47 20 -72 2 -25 8 -59 15 -76 6
-16 10 -49 9 -72 -2 -33 2 -48 19 -66 47 -50 37 -144 -19 -192 -36 -30 -69
-31 -124 -6 -43 20 -145 106 -145 123 0 6 9 3 20 -7 19 -17 21 -17 66 20 57
47 62 60 34 91 -33 35 -53 30 -99 -23 -40 -47 -41 -47 -57 -28 -8 11 -21 19
-28 17 -7 -1 -22 8 -33 20 -33 37 -108 168 -136 238 l-26 65 50 11 c75 18 99
37 99 81 0 37 -31 83 -55 83 -7 0 -28 -11 -48 -24 -33 -23 -47 -24 -47 -4 0 4
5 8 12 8 6 0 27 12 46 26 31 24 34 31 29 63 -4 36 -3 37 22 33 32 -4 54 17 54
53 0 13 6 30 13 36 8 6 14 22 14 35 0 13 3 24 6 24 3 0 4 -16 2 -36z m962
-209 c0 -9 10 -19 23 -24 24 -9 105 -117 95 -126 -10 -10 -118 36 -128 55 -13
24 -13 110 0 110 6 0 10 -7 10 -15z m-575 -134 c28 -16 58 -38 68 -48 16 -18
16 -21 2 -33 -24 -20 1 -40 51 -40 23 0 55 -5 69 -10 22 -8 25 -13 15 -25 -29
-34 32 -48 89 -19 28 14 37 14 94 0 35 -9 72 -16 83 -17 10 -1 -8 -10 -41 -22
-49 -17 -86 -21 -200 -21 -131 -1 -142 0 -172 22 -48 34 -93 117 -117 215 -8
34 -3 34 59 -2z m-595 -51 c0 -10 9 -42 20 -70 11 -28 20 -53 20 -56 0 -15
-90 11 -134 37 -45 27 -50 29 -66 14 -16 -15 -23 -14 -76 4 -53 18 -60 18 -71
5 -10 -14 -15 -14 -42 1 -39 20 -55 11 -47 -26 4 -22 2 -29 -9 -29 -23 0 -18
-22 14 -61 l29 -35 -29 4 c-69 10 -80 -52 -17 -98 48 -35 58 -37 65 -10 3 11
11 20 19 20 22 0 27 20 10 39 -23 25 -20 34 7 17 12 -7 46 -21 75 -31 28 -9
52 -21 52 -26 0 -5 -4 -9 -10 -9 -24 0 -6 -17 37 -34 57 -24 123 -81 123 -108
0 -11 -5 -28 -10 -38 -10 -19 -11 -19 -31 1 -11 11 -27 18 -37 15 -12 -4 -21
2 -27 16 -13 30 -63 48 -75 28 -26 -40 6 -89 48 -76 11 4 22 -2 30 -14 14 -23
11 -24 -60 -9 -79 16 -85 18 -68 29 12 7 11 12 -4 29 -25 27 -54 35 -72 20
-13 -10 -12 -14 2 -30 10 -11 24 -19 33 -19 13 0 14 -2 2 -9 -9 -6 -25 -2 -46
12 -28 18 -31 24 -21 40 9 15 6 23 -22 48 -34 31 -60 37 -80 17 -18 -18 -15
-24 18 -38 17 -7 29 -14 27 -16 -6 -7 -133 49 -153 68 -37 33 -77 136 -82 208
-4 63 -4 65 14 48 18 -16 21 -16 51 3 17 11 41 36 52 55 22 37 36 41 65 19 16
-12 22 -12 47 0 15 8 40 15 56 15 15 0 46 7 70 16 39 15 45 15 83 0 55 -22 88
-20 140 8 57 30 80 32 80 6z m1462 -167 c64 -45 79 -58 56 -50 -13 5 -18 1
-18 -12 0 -25 -37 -17 -45 10 -4 10 -13 19 -21 19 -11 0 -13 -6 -9 -20 6 -20
4 -19 -61 5 -38 14 -82 34 -99 45 -28 18 -28 20 -7 20 12 0 34 -8 49 -17 25
-16 26 -16 45 10 26 36 48 34 110 -10z"/>
<path d="M970 1886 c0 -2 7 -9 15 -16 9 -7 15 -8 15 -2 0 5 -7 12 -15 16 -8 3
-15 4 -15 2z"/>
<path d="M500 1830 l-25 -21 35 3 c24 2 36 9 38 21 5 23 -17 21 -48 -3z"/>
<path d="M365 1787 c-11 -9 -14 -16 -8 -20 16 -10 71 3 84 19 9 11 5 14 -23
14 -19 0 -42 -6 -53 -13z"/>
<path d="M520 1776 c0 -9 5 -16 10 -16 6 0 10 4 10 9 0 6 -4 13 -10 16 -5 3
-10 -1 -10 -9z"/>
<path d="M415 1755 c-62 -43 -114 -111 -115 -152 0 -36 16 -27 59 31 47 63 98
113 124 122 9 3 17 10 17 15 0 18 -48 9 -85 -16z"/>
<path d="M270 1750 c0 -5 5 -10 10 -10 6 0 10 5 10 10 0 6 -4 10 -10 10 -5 0
-10 -4 -10 -10z"/>
<path d="M236 1731 c-4 -5 -2 -12 3 -15 5 -4 12 -2 15 3 4 5 2 12 -3 15 -5 4
-12 2 -15 -3z"/>
<path d="M274 1698 c-85 -89 -103 -128 -61 -128 39 0 66 28 83 85 8 30 20 55
25 55 5 0 9 7 9 15 0 24 -13 18 -56 -27z"/>
<path d="M1020 1709 c0 -5 5 -7 10 -4 6 3 10 8 10 11 0 2 -4 4 -10 4 -5 0 -10
-5 -10 -11z"/>
<path d="M206 1701 c-4 -5 -2 -12 3 -15 5 -4 12 -2 15 3 4 5 2 12 -3 15 -5 4
-12 2 -15 -3z"/>
<path d="M494 1661 c-55 -39 -94 -88 -94 -117 0 -30 2 -30 70 4 68 34 93 66
84 110 -4 17 -10 32 -14 32 -4 0 -25 -13 -46 -29z m4 -69 c4 -26 -22 -40 -43
-22 -11 9 -12 17 -4 32 13 25 43 19 47 -10z"/>
<path d="M180 1671 c0 -6 5 -13 10 -16 6 -3 10 1 10 9 0 9 -4 16 -10 16 -5 0
-10 -4 -10 -9z"/>
<path d="M442 1660 c0 -14 2 -19 5 -12 2 6 2 18 0 25 -3 6 -5 1 -5 -13z"/>
<path d="M412 1640 c0 -14 2 -19 5 -12 2 6 2 18 0 25 -3 6 -5 1 -5 -13z"/>
<path d="M380 1617 c0 -14 5 -29 10 -32 7 -4 8 3 4 22 -9 38 -14 42 -14 10z"/>
<path d="M551 1584 c-13 -19 -36 -41 -50 -49 l-26 -14 38 -1 c59 0 77 14 77
60 0 22 -3 40 -7 40 -5 0 -19 -16 -32 -36z"/>
<path d="M160 1586 c0 -9 5 -16 10 -16 6 0 10 4 10 9 0 6 -4 13 -10 16 -5 3
-10 -1 -10 -9z"/>
<path d="M270 1551 c0 -14 28 -33 39 -27 16 10 1 36 -20 36 -10 0 -19 -4 -19
-9z"/>
<path d="M345 1537 c-10 -37 10 -59 49 -55 36 3 42 21 9 26 -13 2 -23 7 -23
11 0 4 -6 16 -14 27 -14 18 -15 18 -21 -9z"/>
<path d="M177 1544 c-14 -14 -8 -64 8 -64 20 0 57 38 52 53 -4 14 -49 22 -60
11z"/>
<path d="M240 1495 c-17 -21 -5 -49 40 -89 31 -28 48 -36 79 -36 50 0 99 18
111 40 13 25 4 30 -53 30 -43 0 -55 5 -88 35 -42 37 -69 44 -89 20z"/>
<path d="M525 1492 c-23 -5 -45 -21 -45 -33 0 -5 10 -13 21 -20 28 -14 69 3
69 30 0 21 -15 29 -45 23z"/>
<path d="M185 1440 c-8 -26 4 -105 20 -126 16 -23 35 -10 35 24 0 32 -31 122
-41 122 -4 0 -10 -9 -14 -20z"/>
<path d="M266 1371 c-8 -12 31 -44 44 -36 8 5 6 13 -6 26 -19 21 -30 24 -38
10z"/>
<path d="M1158 1759 c-10 -10 -18 -23 -18 -27 0 -10 89 -34 101 -27 17 11 9
44 -13 59 -29 20 -49 19 -70 -5z"/>
<path d="M1303 1713 c-8 -3 -13 -22 -13 -46 0 -41 1 -42 59 -69 67 -32 77 -33
84 -15 21 55 -74 149 -130 130z"/>
<path d="M1459 1559 c-30 -30 -8 -89 33 -89 11 0 41 -10 68 -21 56 -24 80 -20
80 13 0 43 -35 84 -86 102 -61 21 -70 20 -95 -5z"/>
<path d="M1672 1448 c0 -60 8 -70 77 -102 50 -24 63 -27 76 -16 53 44 -39 160
-128 160 -24 0 -26 -4 -25 -42z"/>
<path d="M1867 1328 c-29 -22 -9 -66 42 -94 48 -25 74 -20 86 16 9 28 -30 80
-60 80 -13 0 -29 2 -37 5 -7 3 -21 0 -31 -7z"/>
<path d="M2027 1253 c-15 -14 -5 -24 39 -43 55 -24 74 -25 74 -5 0 30 -92 69
-113 48z"/>
<path d="M2170 1191 c-16 -31 -2 -52 29 -45 58 13 63 20 35 48 -21 22 -51 20
-64 -3z"/>
<path d="M1174 1557 c-8 -21 1 -47 16 -47 19 0 23 31 7 48 -15 14 -17 14 -23
-1z"/>
<path d="M1076 1493 c-4 -9 -1 -23 7 -30 12 -12 16 -12 26 1 16 19 8 46 -13
46 -7 0 -17 -8 -20 -17z"/>
<path d="M1166 1483 c-9 -22 24 -55 43 -44 12 8 12 13 -3 35 -19 30 -31 33
-40 9z"/>
<path d="M1235 1481 c-12 -11 15 -51 35 -51 11 0 20 28 14 44 -5 13 -39 18
-49 7z"/>
<path d="M1119 1438 c-10 -18 -8 -24 7 -35 15 -11 20 -11 31 0 16 15 8 43 -13
51 -8 3 -19 -4 -25 -16z"/>
<path d="M1225 1400 c-7 -12 25 -72 41 -77 20 -7 25 27 9 58 -16 29 -38 38
-50 19z"/>
<path d="M1170 1340 c0 -30 5 -42 21 -51 17 -9 23 -8 30 2 21 33 1 89 -31 89
-17 0 -20 -7 -20 -40z"/>
<path d="M1323 1333 c-4 -9 1 -21 12 -29 22 -16 83 -29 93 -20 13 14 -16 41
-57 53 -36 10 -43 10 -48 -4z"/>
<path d="M1292 1254 c2 -22 8 -38 13 -36 15 3 12 65 -3 70 -10 3 -13 -6 -10
-34z"/>
<path d="M1085 1269 c-39 -11 -55 -34 -55 -78 0 -84 15 -94 92 -64 61 23 78
41 78 80 0 60 -43 84 -115 62z"/>
<path d="M1222 1242 c-7 -5 -10 -16 -6 -26 9 -24 49 -17 49 9 0 21 -22 30 -43
17z"/>
<path d="M1370 1246 c0 -2 12 -27 26 -55 32 -61 54 -67 54 -15 0 51 -15 74
-50 74 -17 0 -30 -2 -30 -4z"/>
<path d="M1331 1181 c-17 -11 -3 -59 21 -74 39 -25 62 18 32 61 -16 23 -31 27
-53 13z"/>
<path d="M1137 1113 c-26 -13 -50 -30 -53 -38 -6 -16 20 -71 49 -102 29 -32
91 -32 108 -1 7 13 18 28 25 36 15 14 7 44 -27 99 -24 38 -37 39 -102 6z"/>
<path d="M1270 1111 c0 -31 22 -57 40 -46 24 15 7 75 -21 75 -14 0 -19 -7 -19
-29z"/>
<path d="M1425 1093 c3 -10 11 -39 17 -66 12 -50 31 -58 36 -15 4 36 -23 98
-44 98 -11 0 -14 -5 -9 -17z"/>
<path d="M1350 1062 c-25 -20 -20 -41 19 -76 17 -15 23 -16 36 -6 27 22 12
100 -19 100 -8 0 -24 -8 -36 -18z"/>
<path d="M1412 929 c-30 -11 -28 -14 36 -73 56 -53 67 -52 78 1 5 26 1 37 -19
57 -27 27 -55 31 -95 15z"/>
<path d="M1318 855 c-43 -40 -41 -43 60 -96 53 -27 66 -31 87 -21 14 6 25 17
25 23 0 14 -113 129 -126 129 -5 0 -25 -16 -46 -35z"/>
<path d="M417 1159 c-33 -47 -30 -61 15 -89 64 -39 105 -18 95 47 -7 39 -42
83 -66 83 -9 -1 -29 -19 -44 -41z"/>
<path d="M342 1048 c-18 -18 -14 -43 12 -71 16 -17 22 -33 19 -47 -6 -24 18
-55 60 -76 59 -31 64 13 8 67 -29 27 -36 39 -26 43 8 3 21 18 29 35 15 28 15
31 -6 45 -27 19 -79 21 -96 4z"/>
<path d="M451 966 c-9 -11 -9 -19 1 -35 24 -39 58 -38 58 3 0 40 -36 60 -59
32z"/>
<path d="M665 946 c-13 -14 -22 -31 -20 -39 6 -15 87 -57 110 -57 37 0 -8 110
-48 118 -9 2 -28 -8 -42 -22z"/>
<path d="M540 907 c0 -19 43 -57 63 -57 24 0 21 12 -11 43 -30 29 -52 35 -52
14z"/>
<path d="M797 883 c-14 -14 -6 -31 32 -61 45 -36 91 -52 91 -30 0 16 -54 70
-87 87 -25 13 -28 13 -36 4z"/>
<path d="M644 858 c-8 -13 39 -58 62 -58 20 0 17 27 -6 50 -22 22 -45 26 -56
8z"/>
</g>
</svg>
